<svg width="346" height="240" viewBox="0 0 346 240" fill="none" xmlns="http://www.w3.org/2000/svg">
<path d="M29.5555 70.1024C28.6788 123.579 19.6692 162.414 88.0126 147.509" stroke="#0810A6" stroke-width="30" stroke-linecap="round"/>
<path d="M44.5 68.5L44.5 53.5L14.5 53.5L14.5 68.5L44.5 68.5ZM81.4969 106.285C89.6622 104.886 95.1474 97.1323 93.7485 88.967C92.3495 80.8017 84.5962 75.3165 76.4309 76.7154L81.4969 106.285ZM14.5 68.5C14.5 84.2973 23.1873 96.3703 36.6546 102.647C49.1002 108.447 64.9069 109.127 81.4969 106.285L76.4309 76.7154C63.0452 79.0088 54.12 77.6885 49.3276 75.455C45.5568 73.6976 44.5 71.7027 44.5 68.5L14.5 68.5Z" fill="#0810A6"/>
<path d="M153.176 96V38.784H134.36V28.8H182.936V38.784H163.544V96H153.176ZM203.054 96.96C198.894 96.96 195.086 95.808 191.63 93.504C188.238 91.2 185.518 88.064 183.47 84.096C181.422 80.128 180.398 75.648 180.398 70.656C180.398 65.6 181.422 61.12 183.47 57.216C185.582 53.248 188.398 50.144 191.918 47.904C195.502 45.664 199.502 44.544 203.918 44.544C206.542 44.544 208.942 44.928 211.118 45.696C213.294 46.464 215.182 47.552 216.782 48.96C218.446 50.304 219.79 51.872 220.814 53.664C221.902 55.456 222.574 57.376 222.83 59.424L220.622 58.656V45.6H230.606V96H220.622V84L222.926 83.328C222.542 85.056 221.742 86.752 220.526 88.416C219.374 90.016 217.87 91.456 216.014 92.736C214.222 94.016 212.206 95.04 209.966 95.808C207.79 96.576 205.486 96.96 203.054 96.96ZM205.646 87.84C208.654 87.84 211.31 87.104 213.614 85.632C215.918 84.16 217.71 82.144 218.99 79.584C220.334 76.96 221.006 73.984 221.006 70.656C221.006 67.392 220.334 64.48 218.99 61.92C217.71 59.36 215.918 57.344 213.614 55.872C211.31 54.4 208.654 53.664 205.646 53.664C202.702 53.664 200.078 54.4 197.774 55.872C195.534 57.344 193.742 59.36 192.398 61.92C191.118 64.48 190.478 67.392 190.478 70.656C190.478 73.984 191.118 76.96 192.398 79.584C193.742 82.144 195.534 84.16 197.774 85.632C200.078 87.104 202.702 87.84 205.646 87.84ZM261.212 96.96C256.988 96.96 253.18 96.224 249.788 94.752C246.396 93.28 243.58 91.104 241.34 88.224L248.06 82.464C249.98 84.704 252.06 86.336 254.3 87.36C256.604 88.32 259.196 88.8 262.076 88.8C263.228 88.8 264.284 88.672 265.244 88.416C266.268 88.096 267.132 87.648 267.836 87.072C268.604 86.496 269.18 85.824 269.564 85.056C269.948 84.224 270.14 83.328 270.14 82.368C270.14 80.704 269.532 79.36 268.316 78.336C267.676 77.888 266.652 77.408 265.244 76.896C263.9 76.32 262.14 75.744 259.964 75.168C256.252 74.208 253.212 73.12 250.844 71.904C248.476 70.688 246.652 69.312 245.372 67.776C244.412 66.56 243.708 65.248 243.26 63.84C242.812 62.368 242.588 60.768 242.588 59.04C242.588 56.928 243.036 55.008 243.932 53.28C244.892 51.488 246.172 49.952 247.772 48.672C249.436 47.328 251.356 46.304 253.532 45.6C255.772 44.896 258.14 44.544 260.636 44.544C263.004 44.544 265.34 44.864 267.644 45.504C270.012 46.144 272.188 47.072 274.172 48.288C276.156 49.504 277.82 50.944 279.164 52.608L273.5 58.848C272.284 57.632 270.94 56.576 269.468 55.68C268.06 54.72 266.62 53.984 265.148 53.472C263.676 52.96 262.332 52.704 261.116 52.704C259.772 52.704 258.556 52.832 257.468 53.088C256.38 53.344 255.452 53.728 254.684 54.24C253.98 54.752 253.436 55.392 253.052 56.16C252.668 56.928 252.476 57.792 252.476 58.752C252.54 59.584 252.732 60.384 253.052 61.152C253.436 61.856 253.948 62.464 254.588 62.976C255.292 63.488 256.348 64.032 257.756 64.608C259.164 65.184 260.956 65.728 263.132 66.24C266.332 67.072 268.956 68 271.004 69.024C273.116 69.984 274.78 71.104 275.996 72.384C277.276 73.6 278.172 75.008 278.684 76.608C279.196 78.208 279.452 80 279.452 81.984C279.452 84.864 278.62 87.456 276.956 89.76C275.356 92 273.18 93.76 270.428 95.04C267.676 96.32 264.604 96.96 261.212 96.96ZM299.374 80.256L298.894 69.504L322.99 45.6H336.333L299.374 80.256ZM290.35 96V24.96H300.238V96H290.35ZM324.334 96L305.326 73.824L312.334 67.392L337.006 96H324.334Z" fill="#0810A6"/>
<path d="M140.408 216V148.8H150.776V216H140.408ZM145.016 187.392V177.408H179.672V187.392H145.016ZM145.016 158.784V148.8H183.992V158.784H145.016ZM195.854 216V144.96H205.742V216H195.854ZM241.474 216.96C236.546 216.96 232.13 215.84 228.226 213.6C224.386 211.296 221.346 208.192 219.106 204.288C216.866 200.32 215.746 195.808 215.746 190.752C215.746 185.696 216.866 181.216 219.106 177.312C221.346 173.344 224.386 170.24 228.226 168C232.13 165.696 236.546 164.544 241.474 164.544C246.338 164.544 250.69 165.696 254.53 168C258.434 170.24 261.506 173.344 263.746 177.312C265.986 181.216 267.106 185.696 267.106 190.752C267.106 195.808 265.986 200.32 263.746 204.288C261.506 208.192 258.434 211.296 254.53 213.6C250.69 215.84 246.338 216.96 241.474 216.96ZM241.474 207.936C244.482 207.936 247.17 207.2 249.538 205.728C251.906 204.192 253.762 202.144 255.106 199.584C256.45 196.96 257.09 194.016 257.026 190.752C257.09 187.424 256.45 184.48 255.106 181.92C253.762 179.296 251.906 177.248 249.538 175.776C247.17 174.304 244.482 173.568 241.474 173.568C238.466 173.568 235.746 174.336 233.314 175.872C230.946 177.344 229.09 179.392 227.746 182.016C226.402 184.576 225.762 187.488 225.826 190.752C225.762 194.016 226.402 196.96 227.746 199.584C229.09 202.144 230.946 204.192 233.314 205.728C235.746 207.2 238.466 207.936 241.474 207.936ZM288.39 216L271.206 165.6L281.19 165.504L293.478 203.232L291.27 203.04L304.614 173.568H310.566L324.006 203.136L321.414 203.328L333.798 165.6H343.782L326.79 216H319.974L305.958 183.936L308.166 184.224L295.11 216H288.39Z" fill="#262626"/>
</svg>
