<svg width="72" height="85" viewBox="0 0 72 85" fill="none" xmlns="http://www.w3.org/2000/svg">
<path d="M20.1517 13.0736C19.5539 51.5515 13.4109 79.4948 60.0098 68.7698" stroke="#030A8C" stroke-width="24" stroke-linecap="round"/>
<path d="M32.3692 13.2539L32.3692 1.19573L8.49142 0.687994L8.49142 12.7461L32.3692 13.2539ZM56.1823 40.3435C62.6478 39.1745 66.8406 32.9109 65.547 26.3533C64.2535 19.7956 57.9635 15.4273 51.498 16.5963L56.1823 40.3435ZM8.49142 12.7461C8.49142 18.1649 9.76287 23.5267 12.7937 28.2577C15.833 33.0018 20.1244 36.3031 24.859 38.4064C33.8841 42.4156 45.038 42.3584 56.1823 40.3435L51.498 16.5963C42.2039 18.2766 36.6528 17.4999 34.0826 16.3581C33.0196 15.8859 32.7907 15.5037 32.7592 15.4545C32.7191 15.392 32.3692 14.8505 32.3692 13.2539L8.49142 12.7461Z" fill="#030A8C"/>
</svg>
